<svg width="1200" height="1200" viewBox="0 0 1200 1200" xmlns="http://www.w3.org/2000/svg">
<defs>
  <linearGradient id="orangeGradient" x1="0%" y1="0%" x2="100%" y2="100%">
    <stop offset="0%" style="stop-color:#FF4500;stop-opacity:0.7" />
    <stop offset="100%" style="stop-color:#E03E00;stop-opacity:0.5" />
  </linearGradient>
</defs>
<g fill="none" stroke="url(#orangeGradient)" stroke-width="1.5">
  <!-- Outer Circle -->
  <circle cx="600" cy="600" r="550" />
  
  <!-- Inner Circles -->
  <circle cx="600" cy="600" r="450" />
  <circle cx="600" cy="600" r="350" />
  <circle cx="600" cy="600" r="250" />
  <circle cx="600" cy="600" r="150" />
  
  <!-- Vertical Line -->
  <line x1="600" y1="50" x2="600" y2="1150" />
  
  <!-- Horizontal Line -->
  <line x1="50" y1="600" x2="1150" y2="600" />
  
  <!-- Diagonal Lines -->
  <line x1="50" y1="50" x2="1150" y2="1150" />
  <line x1="1150" y1="50" x2="50" y2="1150" />
  
  <!-- Additional Geometric Patterns -->
  <path d="M600,50 Q900,300 1150,600 Q900,900 600,1150 Q300,900 50,600 Q300,300 600,50" />
  <path d="M600,150 Q825,375 1050,600 Q825,825 600,1050 Q375,825 150,600 Q375,375 600,150" />
  <path d="M600,250 Q750,450 950,600 Q750,750 600,950 Q450,750 250,600 Q450,450 600,250" />
  <path d="M600,350 Q675,525 850,600 Q675,675 600,850 Q525,675 350,600 Q525,525 600,350" />
  
  <!-- Small dots at intersections -->
  <circle cx="600" cy="600" r="5" fill="#FF4500" />
  <circle cx="600" cy="50" r="3" fill="#FF4500" />
  <circle cx="600" cy="1150" r="3" fill="#FF4500" />
  <circle cx="50" cy="600" r="3" fill="#FF4500" />
  <circle cx="1150" cy="600" r="3" fill="#FF4500" />
  <circle cx="50" cy="50" r="3" fill="#FF4500" />
  <circle cx="1150" cy="1150" r="3" fill="#FF4500" />
  <circle cx="50" cy="1150" r="3" fill="#FF4500" />
  <circle cx="1150" cy="50" r="3" fill="#FF4500" />
  
  <!-- Additional nodes -->
  <g fill="#FF4500">
    <circle cx="600" cy="150" r="2" />
    <circle cx="600" cy="250" r="2" />
    <circle cx="600" cy="350" r="2" />
    <circle cx="600" cy="450" r="2" />
    <circle cx="600" cy="750" r="2" />
    <circle cx="600" cy="850" r="2" />
    <circle cx="600" cy="950" r="2" />
    <circle cx="600" cy="1050" r="2" />
    
    <circle cx="150" cy="600" r="2" />
    <circle cx="250" cy="600" r="2" />
    <circle cx="350" cy="600" r="2" />
    <circle cx="450" cy="600" r="2" />
    <circle cx="750" cy="600" r="2" />
    <circle cx="850" cy="600" r="2" />
    <circle cx="950" cy="600" r="2" />
    <circle cx="1050" cy="600" r="2" />
  </g>
  
  <!-- Connecting lines for network effect -->
  <g stroke-width="0.8" stroke-opacity="0.4">
    <line x1="600" y1="150" x2="750" y2="600" />
    <line x1="600" y1="250" x2="850" y2="600" />
    <line x1="600" y1="350" x2="950" y2="600" />
    <line x1="600" y1="450" x2="1050" y2="600" />
    
    <line x1="600" y1="750" x2="750" y2="600" />
    <line x1="600" y1="850" x2="850" y2="600" />
    <line x1="600" y1="950" x2="950" y2="600" />
    <line x1="600" y1="1050" x2="1050" y2="600" />
    
    <line x1="150" y1="600" x2="600" y2="150" />
    <line x1="250" y1="600" x2="600" y2="250" />
    <line x1="350" y1="600" x2="600" y2="350" />
    <line x1="450" y1="600" x2="600" y2="450" />
    
    <line x1="150" y1="600" x2="600" y2="750" />
    <line x1="250" y1="600" x2="600" y2="850" />
    <line x1="350" y1="600" x2="600" y2="950" />
    <line x1="450" y1="600" x2="600" y2="1050" />
  </g>
</g>
</svg>